<svg width="63" height="39" viewBox="0 0 63 39" fill="none" xmlns="http://www.w3.org/2000/svg">
<path d="M11.1641 0.953125V6.91016H8.23438V0.953125H11.1641ZM10.8125 32.8477V38.0625H7.90234V32.8477H10.8125ZM14.7188 26.6758C14.7188 25.8945 14.543 25.1914 14.1914 24.5664C13.8398 23.9414 13.2604 23.3685 12.4531 22.8477C11.6458 22.3268 10.5651 21.8451 9.21094 21.4023C7.57031 20.8945 6.15104 20.276 4.95312 19.5469C3.76823 18.8177 2.85026 17.9128 2.19922 16.832C1.5612 15.7513 1.24219 14.4427 1.24219 12.9062C1.24219 11.3047 1.58724 9.92448 2.27734 8.76562C2.96745 7.60677 3.94401 6.71484 5.20703 6.08984C6.47005 5.46484 7.95443 5.15234 9.66016 5.15234C10.9883 5.15234 12.1732 5.35417 13.2148 5.75781C14.2565 6.14844 15.1354 6.73438 15.8516 7.51562C16.5807 8.29688 17.1341 9.25391 17.5117 10.3867C17.9023 11.5195 18.0977 12.8281 18.0977 14.3125H14.5039C14.5039 13.4401 14.3997 12.6393 14.1914 11.9102C13.9831 11.181 13.6706 10.5495 13.2539 10.0156C12.8372 9.46875 12.3294 9.05208 11.7305 8.76562C11.1315 8.46615 10.4414 8.31641 9.66016 8.31641C8.56641 8.31641 7.66146 8.50521 6.94531 8.88281C6.24219 9.26042 5.72135 9.79427 5.38281 10.4844C5.04427 11.1615 4.875 11.9492 4.875 12.8477C4.875 13.681 5.04427 14.4102 5.38281 15.0352C5.72135 15.6602 6.29427 16.2266 7.10156 16.7344C7.92188 17.2292 9.04818 17.7174 10.4805 18.1992C12.1602 18.7331 13.5859 19.3646 14.7578 20.0938C15.9297 20.8099 16.8216 21.6953 17.4336 22.75C18.0456 23.7917 18.3516 25.0872 18.3516 26.6367C18.3516 28.3164 17.974 29.7357 17.2188 30.8945C16.4635 32.0404 15.4023 32.9128 14.0352 33.5117C12.668 34.1107 11.0664 34.4102 9.23047 34.4102C8.1237 34.4102 7.02995 34.2604 5.94922 33.9609C4.86849 33.6615 3.89193 33.1732 3.01953 32.4961C2.14714 31.806 1.45052 30.901 0.929688 29.7812C0.408854 28.6484 0.148438 27.2617 0.148438 25.6211H3.78125C3.78125 26.7279 3.9375 27.6458 4.25 28.375C4.57552 29.0911 5.00521 29.6641 5.53906 30.0938C6.07292 30.5104 6.65885 30.8099 7.29688 30.9922C7.94792 31.1615 8.59245 31.2461 9.23047 31.2461C10.4023 31.2461 11.3919 31.0638 12.1992 30.6992C13.0195 30.3216 13.6445 29.7878 14.0742 29.0977C14.5039 28.4076 14.7188 27.6003 14.7188 26.6758ZM41.2422 5.5625V7.59375L29.4648 34H25.6562L37.4141 8.53125H22.0234V5.5625H41.2422ZM48.957 30.9727H49.3281C51.4115 30.9727 53.1042 30.6797 54.4062 30.0938C55.7083 29.5078 56.7109 28.7201 57.4141 27.7305C58.1172 26.7409 58.599 25.6276 58.8594 24.3906C59.1198 23.1406 59.25 21.8581 59.25 20.543V16.1875C59.25 14.8984 59.1003 13.7526 58.8008 12.75C58.5143 11.7474 58.1107 10.9076 57.5898 10.2305C57.082 9.55339 56.5026 9.03906 55.8516 8.6875C55.2005 8.33594 54.5104 8.16016 53.7812 8.16016C52.9479 8.16016 52.1992 8.32943 51.5352 8.66797C50.8841 8.99349 50.3307 9.45573 49.875 10.0547C49.4323 10.6536 49.0938 11.3568 48.8594 12.1641C48.625 12.9714 48.5078 13.8503 48.5078 14.8008C48.5078 15.6471 48.612 16.4674 48.8203 17.2617C49.0286 18.056 49.3477 18.7721 49.7773 19.4102C50.207 20.0482 50.7409 20.556 51.3789 20.9336C52.0299 21.2982 52.7917 21.4805 53.6641 21.4805C54.4714 21.4805 55.2266 21.3242 55.9297 21.0117C56.6458 20.6862 57.2773 20.25 57.8242 19.7031C58.3841 19.1432 58.8268 18.5117 59.1523 17.8086C59.4909 17.1055 59.6862 16.3698 59.7383 15.6016H61.457C61.457 16.6823 61.2422 17.75 60.8125 18.8047C60.3958 19.8464 59.8099 20.7969 59.0547 21.6562C58.2995 22.5156 57.4141 23.2057 56.3984 23.7266C55.3828 24.2344 54.276 24.4883 53.0781 24.4883C51.6719 24.4883 50.4544 24.2148 49.4258 23.668C48.3971 23.1211 47.5508 22.3919 46.8867 21.4805C46.2357 20.569 45.7474 19.5534 45.4219 18.4336C45.1094 17.3008 44.9531 16.1549 44.9531 14.9961C44.9531 13.6419 45.1419 12.3724 45.5195 11.1875C45.8971 10.0026 46.457 8.96094 47.1992 8.0625C47.9414 7.15104 48.8594 6.44141 49.9531 5.93359C51.0599 5.42578 52.3359 5.17188 53.7812 5.17188C55.4089 5.17188 56.7956 5.4974 57.9414 6.14844C59.0872 6.79948 60.0182 7.67188 60.7344 8.76562C61.4635 9.85938 61.9974 11.0898 62.3359 12.457C62.6745 13.8242 62.8438 15.2305 62.8438 16.6758V17.9844C62.8438 19.4557 62.7461 20.9531 62.5508 22.4766C62.3685 23.987 62.0104 25.4323 61.4766 26.8125C60.9557 28.1927 60.194 29.4297 59.1914 30.5234C58.1888 31.6042 56.8802 32.4635 55.2656 33.1016C53.6641 33.7266 51.6849 34.0391 49.3281 34.0391H48.957V30.9727Z" fill="#ADC9A6"/>
</svg>
